<svg width="183" height="167" viewBox="0 0 183 167" fill="none" xmlns="http://www.w3.org/2000/svg">
<path d="M25.0567 139.257C28.0078 139.352 30.934 138.69 33.5576 137.336C17.731 130.173 10.8871 116.471 7.94905 106.01C27.0068 106.236 85.3152 122.193 127.602 134.833C130.984 133.726 134.555 133.323 138.098 133.647C141.641 133.971 145.08 135.016 148.204 136.717C148.366 136.801 148.526 136.881 148.687 136.964V125.947C148.687 125.337 148.492 124.744 148.131 124.253C147.77 123.762 147.261 123.399 146.679 123.218C144.529 122.549 139.566 121.01 132.725 118.944C132.88 118.587 132.961 118.202 132.961 117.812V102.086C132.961 101.47 132.763 100.872 132.395 100.378C132.028 99.8847 131.511 99.5229 130.922 99.3463L104.367 91.3801V74.7643C104.367 74.1465 104.168 73.5454 103.798 73.0506C103.428 72.5558 102.908 72.194 102.316 72.0193L73.7218 63.5984C73.1804 63.4421 72.6052 63.4466 72.0662 63.6113L56.5184 68.4365C55.9356 68.6174 55.426 68.98 55.064 69.4714C54.7021 69.9627 54.5068 70.5569 54.5068 71.1672V78.5515L52.2765 77.8953C52.0513 77.8315 51.8186 77.7984 51.5845 77.7966C51.3531 77.7857 51.1211 77.7996 50.8926 77.8381L34.0937 81.2936C33.4489 81.4263 32.8696 81.7774 32.4537 82.2876C32.0377 82.7979 31.8105 83.4361 31.8105 84.0944V92.1693C17.7667 89.39 6.70952 88.0718 2.04445 89.4614C1.44964 89.6383 0.928494 90.0038 0.559688 90.5029C0.190883 91.0019 -0.00556756 91.6074 -7.20597e-06 92.2279C0.00428186 92.5853 0.610466 123.715 25.0567 139.257ZM104.367 97.349L127.242 104.212V117.295C119.63 115.017 112.005 112.784 104.367 110.595V97.349ZM75.7734 70.1664L98.6484 76.9045V91.4258L89.5499 94.361C88.9743 94.5467 88.4724 94.91 88.1164 95.3989C87.7603 95.8878 87.5685 96.4769 87.5683 97.0817V105.874C86.0262 105.449 84.4774 105.025 82.9219 104.602V89.0611C82.9215 88.4439 82.7215 87.8434 82.3517 87.3492C81.9819 86.855 81.4623 86.4936 80.8703 86.319L75.7734 84.8178V70.1664ZM98.6484 97.4348V108.968C96.8804 108.468 95.0933 107.965 93.2871 107.46V99.1633L98.6484 97.4348ZM60.2256 73.276L70.0547 70.225V83.1322L60.2256 80.2371V73.276ZM54.3281 84.4633L77.2031 91.2014V103.059C69.6006 101.019 61.9751 99.0663 54.3281 97.2003V84.4633ZM37.5293 86.4276L48.6094 84.1473V95.8336C44.9245 94.9675 41.2309 94.1387 37.5293 93.3473V86.4276ZM6.62945 100.317C6.20055 97.9867 5.9718 96.0109 5.8517 94.5897C23.118 93.2973 95.2715 113.261 142.969 128.053V133.51C117.859 125.808 31.2287 99.841 6.62945 100.317ZM180.141 153.554C175.796 153.46 171.51 154.56 167.747 156.733C164.759 158.399 161.395 159.274 157.975 159.274C154.554 159.274 151.19 158.399 148.203 156.733C144.405 154.648 140.143 153.555 135.81 153.555C131.478 153.555 127.216 154.648 123.418 156.733C120.431 158.399 117.068 159.274 113.647 159.274C110.227 159.274 106.864 158.399 103.877 156.733C100.115 154.56 95.829 153.461 91.4857 153.554C87.1428 153.46 82.8574 154.56 79.096 156.733C76.1473 158.486 72.7619 159.367 69.3327 159.273C65.9017 159.367 62.5144 158.486 59.5636 156.733C55.8017 154.56 51.5158 153.461 47.1725 153.554C42.8296 153.46 38.5442 154.56 34.7829 156.733C31.8325 158.486 28.4458 159.366 25.0152 159.273C21.5851 159.366 18.1989 158.485 15.249 156.733C11.4877 154.56 7.20225 153.46 2.85937 153.554C2.10101 153.554 1.37372 153.856 0.837484 154.392C0.301248 154.928 -7.20597e-06 155.655 -7.20597e-06 156.414C-7.20597e-06 157.172 0.301248 157.899 0.837484 158.436C1.37372 158.972 2.10101 159.273 2.85937 159.273C6.28992 159.18 9.67666 160.061 12.627 161.814C16.3879 163.986 20.6728 165.086 25.0152 164.992C29.3581 165.086 33.6436 163.987 37.4049 161.814C40.3552 160.061 43.742 159.18 47.1725 159.273C50.6035 159.18 53.9908 160.06 56.9416 161.814C60.7035 163.986 64.9894 165.086 69.3327 164.992C73.6746 165.086 77.9591 163.986 81.7195 161.814C84.6693 160.061 88.0556 159.18 91.4857 159.273C94.9167 159.18 98.304 160.06 101.255 161.814C105.053 163.898 109.315 164.991 113.647 164.991C117.98 164.991 122.242 163.898 126.04 161.814C129.027 160.147 132.39 159.273 135.81 159.273C139.231 159.273 142.594 160.147 145.581 161.814C149.379 163.898 153.642 164.991 157.975 164.991C162.308 164.991 166.57 163.898 170.369 161.814C173.321 160.06 176.709 159.18 180.141 159.273C180.899 159.273 181.626 158.972 182.162 158.436C182.699 157.899 183 157.172 183 156.414C183 155.655 182.699 154.928 182.162 154.392C181.626 153.856 180.899 153.554 180.141 153.554Z" fill="white" stroke="#4C563E" stroke-width="3"/>
<path d="M27.1641 123.531C27.1641 125.228 27.6672 126.886 28.6097 128.297C29.5523 129.708 30.892 130.807 32.4595 131.456C34.0269 132.106 35.7517 132.276 37.4157 131.945C39.0797 131.614 40.6082 130.797 41.8078 129.597C43.0075 128.397 43.8245 126.869 44.1555 125.205C44.4865 123.541 44.3166 121.816 43.6673 120.249C43.0181 118.681 41.9186 117.341 40.5079 116.399C39.0973 115.456 37.4388 114.953 35.7422 114.953C33.4679 114.956 31.2876 115.86 29.6795 117.469C28.0713 119.077 27.1667 121.257 27.1641 123.531ZM38.6016 123.531C38.6016 124.097 38.4339 124.65 38.1197 125.12C37.8055 125.59 37.3589 125.957 36.8364 126.173C36.3139 126.389 35.739 126.446 35.1844 126.336C34.6297 126.225 34.1202 125.953 33.7203 125.553C33.3204 125.153 33.0481 124.644 32.9378 124.089C32.8274 123.534 32.884 122.959 33.1005 122.437C33.3169 121.915 33.6834 121.468 34.1536 121.154C34.6238 120.84 35.1767 120.672 35.7422 120.672C36.5002 120.673 37.2268 120.975 37.7628 121.511C38.2988 122.047 38.6004 122.773 38.6016 123.531Z" fill="white" stroke="#4C563E" stroke-width="3"/>
<path d="M180.141 113.523H177.282V4.86719C177.282 4.10883 176.981 3.38154 176.445 2.8453C175.908 2.30907 175.181 2.00781 174.423 2.00781H117.108C116.573 2.00801 116.048 2.15829 115.594 2.44159C115.14 2.72489 114.774 3.12985 114.539 3.61049L108.949 15.048C108.735 15.4839 108.637 15.9669 108.662 16.4515C108.686 16.9361 108.834 17.4064 109.091 17.8181C109.348 18.2298 109.705 18.5694 110.13 18.8049C110.554 19.0403 111.031 19.1639 111.516 19.1641H127.243V25.2445C125.086 25.7996 123.138 26.9731 121.639 28.6206C120.14 30.2682 119.155 32.3181 118.806 34.518C118.456 36.7179 118.757 38.972 119.672 41.0029C120.587 43.0339 122.076 44.7532 123.955 45.9493L116.513 54.453C116.404 54.5945 116.31 54.7463 116.23 54.9062H112.946C112.188 54.9062 111.461 55.2075 110.924 55.7437C110.388 56.28 110.087 57.0073 110.087 57.7656V72.0625C110.087 72.8209 110.388 73.5481 110.924 74.0844C111.461 74.6206 112.188 74.9219 112.946 74.9219H144.399C145.158 74.9219 145.885 74.6206 146.421 74.0844C146.957 73.5481 147.259 72.8209 147.259 72.0625V57.7656C147.259 57.0073 146.957 56.28 146.421 55.7437C145.885 55.2075 145.158 54.9062 144.399 54.9062H141.115C141.036 54.7463 140.941 54.5945 140.832 54.453L134.274 46.9586C136.413 46.1193 138.25 44.6558 139.546 42.7585C140.841 40.8612 141.536 38.6179 141.54 36.3203C141.54 35.562 141.239 34.8347 140.702 34.2984C140.166 33.7622 139.439 33.4609 138.681 33.4609C137.922 33.4609 137.195 33.7622 136.659 34.2984C136.122 34.8347 135.821 35.562 135.821 36.3203C135.821 37.4514 135.486 38.557 134.857 39.4975C134.229 40.4379 133.336 41.1709 132.291 41.6037C131.246 42.0366 130.096 42.1498 128.987 41.9292C127.877 41.7085 126.858 41.1639 126.059 40.3641C125.259 39.5643 124.714 38.5453 124.494 37.436C124.273 36.3267 124.386 35.1768 124.819 34.1318C125.252 33.0869 125.985 32.1937 126.925 31.5653C127.866 30.937 128.971 30.6016 130.102 30.6016C130.861 30.6016 131.588 30.3003 132.124 29.7641C132.661 29.2278 132.962 28.5005 132.962 27.7422V19.1641H160.38V113.523H134.502C142.333 115.88 147.46 117.471 148.38 117.758C149.388 118.078 150.328 118.581 151.153 119.242H177.282V124.961H154.328C154.374 125.288 154.4 125.617 154.407 125.947V130.68H177.282V139.404C173.925 139.729 170.676 140.762 167.748 142.435C164.76 144.101 161.396 144.976 157.976 144.976C154.555 144.976 151.191 144.101 148.204 142.435C144.406 140.35 140.144 139.257 135.811 139.257C131.479 139.257 127.216 140.35 123.419 142.435C120.432 144.101 117.068 144.976 113.648 144.976C110.228 144.976 106.865 144.101 103.878 142.435C100.116 140.262 95.8297 139.164 91.4866 139.258C87.1437 139.164 82.8583 140.263 79.0969 142.436C76.1482 144.189 72.7628 145.07 69.3335 144.977C65.9025 145.07 62.5153 144.189 59.5645 142.436C55.8025 140.263 51.5167 139.164 47.1734 139.258C42.8305 139.164 38.5451 140.263 34.7837 142.436C31.8334 144.189 28.4466 145.07 25.0161 144.977C21.586 145.07 18.1998 144.189 15.2499 142.436C11.4886 140.263 7.20311 139.164 2.86023 139.258C2.10188 139.258 1.37458 139.559 0.838346 140.095C0.302109 140.632 0.000854492 141.359 0.000854492 142.117C0.000854492 142.876 0.302109 143.603 0.838346 144.139C1.37458 144.675 2.10188 144.977 2.86023 144.977C6.29078 144.883 9.67753 145.764 12.6279 147.517C16.3888 149.69 20.6737 150.789 25.0161 150.695C29.359 150.789 33.6444 149.69 37.4058 147.517C40.3561 145.764 43.7428 144.883 47.1734 144.977C50.6044 144.883 53.9917 145.764 56.9424 147.517C60.7044 149.69 64.9902 150.789 69.3335 150.695C73.6755 150.789 77.96 149.69 81.7204 147.517C84.6702 145.764 88.0565 144.883 91.4866 144.977C94.9176 144.883 98.3048 145.764 101.256 147.517C105.053 149.602 109.316 150.695 113.648 150.695C117.981 150.695 122.243 149.602 126.041 147.517C129.028 145.851 132.391 144.976 135.811 144.976C139.231 144.976 142.595 145.851 145.582 147.517C149.38 149.602 153.643 150.695 157.976 150.695C162.308 150.695 166.571 149.602 170.37 147.517C173.321 145.764 176.71 144.883 180.141 144.977C180.9 144.977 181.627 144.675 182.163 144.139C182.7 143.603 183.001 142.876 183.001 142.117V116.383C183.001 115.624 182.7 114.897 182.163 114.361C181.627 113.825 180.9 113.523 180.141 113.523ZM141.54 60.625V69.2031H115.806V60.625H141.54ZM128.673 49.2404L133.629 54.9062H123.716L128.673 49.2404ZM171.563 113.523H166.099V16.3047C166.099 15.5463 165.798 14.819 165.262 14.2828C164.725 13.7466 163.998 13.4453 163.24 13.4453H116.097L118.892 7.72656H171.563V113.523Z" fill="white" stroke="#4C563E" stroke-width="3"/>
</svg>
