<svg width="181" height="156" viewBox="0 0 181 156" fill="none" xmlns="http://www.w3.org/2000/svg">
<path d="M167.703 40.775V36.4688H161.984V40.775C159.554 42.6569 157.544 45.027 156.085 47.7327C154.626 50.4383 153.749 53.4195 153.512 56.4844H150.547V62.2031H153.406V70.7812H136.25V65.0625C136.25 64.3041 135.949 63.5769 135.413 63.0406C134.876 62.5044 134.149 62.2031 133.391 62.2031V53.625H127.672V62.2031H118.468L113.375 41.8329V33.8267C113.35 27.9634 111.367 22.2764 107.741 17.6689C104.114 13.0614 99.0527 9.79747 93.3594 8.39541V2.15625H87.6406V8.38111C81.9473 9.78317 76.8856 13.0471 73.2593 17.6546C69.633 22.2621 67.6499 27.9491 67.625 33.8124V41.8329L62.5325 62.2031H53.3281V53.625H47.6094V62.2031C46.851 62.2031 46.1237 62.5044 45.5875 63.0406C45.0513 63.5769 44.75 64.3041 44.75 65.0625V70.7812H27.5938V62.2031H30.4531V56.4844H27.488C27.2507 53.4195 26.3742 50.4383 24.915 47.7327C23.4558 45.027 21.4462 42.6569 19.0156 40.775V36.4688H13.2969V40.775C10.8663 42.6569 8.85666 45.027 7.39746 47.7327C5.93827 50.4383 5.06182 53.4195 4.82455 56.4844H1.85938V62.2031H4.71875V150.844C4.71875 151.602 5.02 152.329 5.55624 152.866C6.09248 153.402 6.81977 153.703 7.57812 153.703H173.422C174.18 153.703 174.908 153.402 175.444 152.866C175.98 152.329 176.281 151.602 176.281 150.844V62.2031H179.141V56.4844H176.175C175.938 53.4195 175.062 50.4383 173.603 47.7327C172.143 45.027 170.134 42.6569 167.703 40.775ZM164.844 45.7674C168.019 48.4895 170.032 52.3245 170.468 56.4844H159.219C159.655 52.3245 161.668 48.4895 164.844 45.7674ZM90.5 15.9098C94.2197 22.1241 96.1953 29.2263 96.2188 36.4688V39.3281H84.7812V36.4688C84.8047 29.2263 86.7803 22.1241 90.5 15.9098ZM96.2188 45.0469V62.2031H84.7812V45.0469H96.2188ZM101.938 45.0469H108.282L112.572 62.2031H101.938V45.0469ZM107.656 33.8124V39.3281H101.938V36.4688C101.923 29.3313 100.249 22.295 97.048 15.9156C100.248 17.6853 102.919 20.2769 104.783 23.4228C106.648 26.5688 107.64 30.1553 107.656 33.8124ZM73.3438 33.8124C73.3605 30.1486 74.356 26.5558 76.2271 23.4058C78.0982 20.2558 80.777 17.663 83.9863 15.8955C80.7692 22.2777 79.0834 29.3216 79.0625 36.4688V39.3281H73.3438V33.8124ZM72.7175 45.0469H79.0625V62.2031H68.4285L72.7175 45.0469ZM47.6094 76.5C48.3677 76.5 49.095 76.1987 49.6313 75.6625C50.1675 75.1263 50.4688 74.399 50.4688 73.6406V67.9219H130.531V73.6406C130.531 74.399 130.833 75.1263 131.369 75.6625C131.905 76.1987 132.632 76.5 133.391 76.5H153.406V82.2188H124.812V76.5C124.812 75.7416 124.511 75.0144 123.975 74.4781C123.439 73.9419 122.711 73.6406 121.953 73.6406H59.0469C58.2885 73.6406 57.5612 73.9419 57.025 74.4781C56.4888 75.0144 56.1875 75.7416 56.1875 76.5V82.2188H27.5938V76.5H47.6094ZM119.094 147.984H113.375V106.398C113.37 103.217 112.631 100.081 111.213 97.2333C109.826 94.4354 107.813 91.9942 105.331 90.0987C102.849 88.2031 99.9638 86.904 96.8993 86.3019L91.0719 85.1353C90.7019 85.0614 90.321 85.0614 89.951 85.1353L84.1122 86.3019C81.0476 86.904 78.1627 88.2031 75.6806 90.0987C73.1985 91.9942 71.1857 94.4354 69.7981 97.2333C68.3768 100.08 67.6331 103.216 67.625 106.398V147.984H61.9062V79.3594H119.094V147.984ZM96.2188 147.984H84.7812V127.969C84.7812 126.452 85.3838 124.997 86.4562 123.925C87.5287 122.853 88.9833 122.25 90.5 122.25C92.0167 122.25 93.4713 122.853 94.5438 123.925C95.6162 124.997 96.2188 126.452 96.2188 127.969V147.984ZM90.5 116.531C87.4666 116.531 84.5574 117.736 82.4125 119.881C80.2675 122.026 79.0625 124.935 79.0625 127.969V147.984H73.3438V106.398C73.3455 104.105 73.879 101.844 74.9021 99.7925C75.9015 97.7749 77.3519 96.0145 79.1409 94.6475C80.9299 93.2804 83.0095 92.3435 85.2187 91.9092L90.5 90.8541L95.7813 91.9092C97.9905 92.3435 100.07 93.2804 101.859 94.6475C103.648 96.0145 105.098 97.7749 106.098 99.7925C107.121 101.844 107.654 104.105 107.656 106.398V147.984H101.938V127.969C101.938 124.935 100.732 122.026 98.5875 119.881C96.4426 117.736 93.5334 116.531 90.5 116.531ZM16.1562 45.7674C19.332 48.4895 21.3446 52.3245 21.7806 56.4844H10.5319C10.9679 52.3245 12.9805 48.4895 16.1562 45.7674ZM21.875 62.2031V82.2188H10.4375V62.2031H21.875ZM10.4375 147.984V87.9375H21.875V147.984H10.4375ZM27.5938 87.9375H56.1875V147.984H50.4688V113.672C50.4688 112.914 50.1675 112.186 49.6313 111.65C49.095 111.114 48.3677 110.812 47.6094 110.812H36.1719C35.4135 110.812 34.6862 111.114 34.15 111.65C33.6138 112.186 33.3125 112.914 33.3125 113.672V147.984H27.5938V87.9375ZM44.75 147.984H39.0312V116.531H44.75V147.984ZM141.969 147.984H136.25V116.531H141.969V147.984ZM147.688 147.984V113.672C147.688 112.914 147.386 112.186 146.85 111.65C146.314 111.114 145.586 110.812 144.828 110.812H133.391C132.632 110.812 131.905 111.114 131.369 111.65C130.833 112.186 130.531 112.914 130.531 113.672V147.984H124.812V87.9375H153.406V147.984H147.688ZM159.125 147.984V87.9375H170.562V147.984H159.125ZM170.562 82.2188H159.125V62.2031H170.562V82.2188Z" fill="white" stroke="#4C563E" stroke-width="3"/>
</svg>
