<svg width="100" height="101" viewBox="0 0 100 101" fill="none" xmlns="http://www.w3.org/2000/svg">
<g clip-path="url(#clip0_314_58)">
<path d="M98.4878 82.1585C98.0997 82.1585 97.7275 82.3127 97.453 82.5872C97.1786 82.8616 97.0244 83.2338 97.0244 83.6219V98.939C97.0244 100.826 99.9512 100.826 99.9512 98.939V83.6219C99.9512 83.2338 99.797 82.8616 99.5226 82.5872C99.2482 82.3127 98.8759 82.1585 98.4878 82.1585ZM98.4878 49.1546H86.9963V43.8779H90.5106C92.6499 43.8779 94.3902 42.1377 94.3902 39.9983V4.3798C94.3902 2.24049 92.6499 0.5 90.5106 0.5H35.914C33.7746 0.5 32.0343 2.24049 32.0343 4.3798V9.63424C32.0343 11.5217 34.9612 11.5217 34.9612 9.63424V4.3798C34.9614 4.12717 35.0619 3.88496 35.2405 3.7063C35.4191 3.52765 35.6613 3.42714 35.914 3.42683H90.5108C90.7634 3.42719 91.0056 3.52772 91.1842 3.70636C91.3628 3.885 91.4633 4.12719 91.4636 4.3798V32.7562H86.9965V17.1646C86.9965 16.9267 86.9386 16.6924 86.8277 16.482C86.7168 16.2715 86.5563 16.0913 86.36 15.9569C86.1637 15.8225 85.9377 15.738 85.7014 15.7107C85.4651 15.6833 85.2257 15.714 85.0039 15.8001C84.6211 15.9486 76.5473 19.2458 74.8291 32.756H34.9612V17.2438C34.9612 15.3564 32.0343 15.3564 32.0343 17.2438V39.9983C32.0343 42.1377 33.7746 43.8779 35.914 43.8779H55.5717V49.1546H22.3446C25.586 45.9168 25.9024 40.7896 25.9024 36.4817C25.9024 36.0935 25.7483 35.7213 25.4738 35.4469C25.1994 35.1724 24.8271 35.0182 24.439 35.0182H16.5366V32.2555C21.2312 33.2534 26.3489 29.4036 26.2862 24.5199C26.2779 23.8659 26.1967 23.2013 25.5924 22.8022C22.8127 20.9675 18.9844 21.732 16.5366 23.7355V21.0957C20.7186 18.2093 21.0293 11.412 17.0105 8.23932C16.6057 7.91971 16.1577 7.61551 15.6771 7.41961C13.6144 6.57746 11.3471 10.2514 10.8556 11.6696C9.69444 15.0206 10.7448 18.8746 13.6096 21.0011V23.7193C11.7311 22.1909 9.27785 21.4372 6.88117 21.9172C5.89073 22.1156 4.15512 22.5638 3.93912 23.7644C3.01073 28.9304 8.86303 33.2557 13.6098 32.2598V35.0182H5.12195C4.73383 35.0182 4.36161 35.1724 4.08716 35.4469C3.81272 35.7213 3.65854 36.0935 3.65854 36.4817C3.65854 40.7835 3.8919 45.9172 7.13288 49.1546H1.5122C1.12408 49.1546 0.75185 49.3088 0.477407 49.5833C0.202963 49.8577 0.0487823 50.2299 0.0487823 50.618V98.939C0.0487823 100.826 2.97561 100.826 2.97561 98.939V92.1098H29.4146V98.939C29.4146 100.826 32.3415 100.826 32.3415 98.939V61.6707H84.0907C84.0983 62.1806 84.1471 64.9269 84.1532 65.7499H59.3865C53.601 65.7499 49.3143 67.2559 46.6455 70.2259C43.4412 73.7915 43.863 78.1139 43.8827 78.2959C43.9212 78.655 44.0911 78.9871 44.3597 79.2285C44.6283 79.4699 44.9766 79.6034 45.3378 79.6034H64.2439V82.2376H58.4878C56.6004 82.2376 56.6004 85.1644 58.4878 85.1644H64.2439V97.4756H45.5122C43.6248 97.4756 43.6248 100.402 45.5122 100.402H65.1854C65.3477 100.464 65.5231 100.5 65.7073 100.5C65.8915 100.5 66.0669 100.464 66.2293 100.402H85.9024C87.7899 100.402 87.7899 97.4756 85.9024 97.4756H67.1707V79.6036H76.9475C80.3071 79.6036 82.7356 78.7937 84.3723 77.1275C87.2404 74.2075 87.153 69.3183 87.0423 63.1281C87.0338 62.6493 87.0254 62.1622 87.018 61.6705H97.0244V75.4268C97.0244 77.3142 99.9512 77.3142 99.9512 75.4268V50.618C99.9512 50.2299 99.797 49.8577 99.5226 49.5833C99.2482 49.3088 98.8759 49.1546 98.4878 49.1546ZM18.9807 25.5724C20.864 24.3775 22.5024 24.659 23.3555 24.9603C23.098 27.9939 19.41 30.2013 16.591 29.2458C16.7093 28.307 17.1858 26.7111 18.9807 25.5724ZM9.25346 28.6165C8.01015 27.8276 6.95259 26.4692 6.81581 24.9595C9.74654 23.9293 13.193 26.2118 13.5748 29.2458C12.1534 29.7277 10.4995 29.4069 9.25346 28.6165ZM15.1487 10.4842C17.5994 12.3484 17.4896 16.603 15.1401 18.4947C14.4152 17.8986 13.3218 16.6448 13.3218 14.5062C13.3216 12.276 14.4373 11.0434 15.1487 10.4842ZM6.60605 37.9451H22.9536C22.7058 45.8504 20.3463 48.9695 14.7803 48.9695C9.13795 48.9697 6.84332 45.9509 6.60605 37.9451ZM82.2843 75.0766C81.2265 76.1535 79.481 76.6768 76.9475 76.6768H46.8318C46.9672 75.5084 47.4183 73.7449 48.8226 72.1821C50.9128 69.8561 54.4669 68.6768 59.3867 68.6768H84.1157C83.9947 71.5449 83.5612 73.7767 82.2843 75.0766ZM91.4634 35.683V39.9985C91.4632 40.2511 91.3627 40.4933 91.1841 40.672C91.0054 40.8506 90.7632 40.9511 90.5106 40.9513H86.9963V35.683H91.4634ZM81.7807 22.2284C82.5776 21.1757 83.3787 20.3923 84.0695 19.8241V56.4803C83.3811 55.8904 82.5858 55.0859 81.7945 54.0175C78.9428 50.166 77.4353 44.642 77.4353 38.0424C77.4353 31.4526 78.9381 25.9841 81.7807 22.2284ZM74.902 43.8781C75.1815 45.8479 75.5953 47.6005 76.0997 49.1548H70.8529V43.8781H74.902ZM34.9612 39.9983V35.6828H74.5696C74.4778 37.4381 74.4888 39.1972 74.6025 40.9511H35.914C35.6613 40.9509 35.4191 40.8505 35.2405 40.6718C35.0618 40.4932 34.9614 40.251 34.9612 39.9983ZM58.4985 43.8781H67.926V49.1548H58.4985V43.8781ZM77.249 52.0815C78.7738 55.34 80.6667 57.445 82.1982 58.7439H2.97561V52.0815H77.249ZM2.97561 89.1829V76.8902H29.4146V89.1829H2.97561ZM29.4146 73.9634H2.97561V61.6707H29.4146V73.9634ZM86.9963 58.7439V52.0815H97.0244V58.7439H86.9963Z" fill="white" stroke="#3D482E" stroke-width="1.5"/>
<path d="M10.6829 69.2806H21.8049C23.6923 69.2806 23.6923 66.3538 21.8049 66.3538H10.6829C8.79551 66.3538 8.79551 69.2806 10.6829 69.2806ZM21.8049 81.5733H10.6829C8.79551 81.5733 8.79551 84.5001 10.6829 84.5001H21.8049C23.6923 84.5001 23.6923 81.5733 21.8049 81.5733Z" fill="white" stroke="#3D482E" stroke-width="1.5"/>
</g>
<defs>
<clipPath id="clip0_314_58">
<rect width="100" height="100" fill="white" transform="translate(0 0.5)"/>
</clipPath>
</defs>
</svg>
