<svg width="110" height="110" viewBox="0 0 110 110" fill="none" xmlns="http://www.w3.org/2000/svg">
<path fill-rule="evenodd" clip-rule="evenodd" d="M106.562 73.9059V96.2497C107.018 96.2497 107.456 96.4307 107.778 96.7531C108.1 97.0754 108.281 97.5126 108.281 97.9684V103.125C108.281 103.58 108.1 104.018 107.778 104.34C107.456 104.662 107.018 104.843 106.562 104.843H3.4375C2.98166 104.843 2.54449 104.662 2.22216 104.34C1.89983 104.018 1.71875 103.58 1.71875 103.125V97.9684C1.71875 97.5126 1.89983 97.0754 2.22216 96.7531C2.54449 96.4307 2.98166 96.2497 3.4375 96.2497V46.4059C3.4375 45.9501 3.61858 45.5129 3.94091 45.1906C4.26324 44.8682 4.70041 44.6872 5.15625 44.6872H10.3125V29.2184C10.3125 28.7626 10.4936 28.3254 10.8159 28.0031C11.1382 27.6807 11.5754 27.4997 12.0312 27.4997H72.5098C73.5233 28.8965 73.5611 29.6481 72.5098 30.9372H13.75V34.3747H75.625V30.9372V27.4997V6.87465C75.6251 6.61833 75.6824 6.36527 75.7929 6.134C75.9034 5.90272 76.0643 5.69909 76.2637 5.53802C76.4631 5.37694 76.6959 5.2625 76.9453 5.20308C77.1946 5.14365 77.4541 5.14075 77.7047 5.19458L101.767 10.3508C102.152 10.4334 102.496 10.6452 102.743 10.9509C102.99 11.2566 103.125 11.6378 103.125 12.0309V50.3805C101.859 51.4293 101.102 51.4259 99.6875 50.3805V13.4209L79.0625 9.00161V59.0946L99.6875 69.4071V54.57C101.073 53.1581 101.817 53.1237 103.125 54.57V71.1258L105.613 72.3676C105.898 72.5107 106.138 72.7304 106.306 73.0021C106.474 73.2737 106.562 73.5867 106.562 73.9059ZM103.125 74.9672L79.0625 62.936V96.2497H103.125V74.9672ZM75.625 44.6872V37.8122H72.1875V44.6872H75.625ZM68.75 44.6872V37.8122H65.3125V44.6872H68.75ZM61.875 44.6872V37.8122H46.4062V44.6872H61.875ZM42.9688 44.6872V37.8122H39.5312V44.6872H42.9688ZM36.0938 44.6872V37.8122H20.625V44.6872H36.0938ZM17.1875 37.8122H13.75V44.6872H17.1875V37.8122ZM75.625 48.1247H6.875V51.5622H37.2754C38.1177 52.9523 38.1434 53.7064 37.2754 54.9997H6.875V58.4372H75.625V54.9997H40.9277C40.2254 53.8972 40.2254 52.6646 40.9277 51.5622C41.4648 51.5622 75.625 51.5622 75.625 51.5622V48.1247ZM75.625 96.2497V61.8747H72.1875V96.2497H75.625ZM68.75 96.2497V92.8122H13.75V96.2497H68.75ZM13.75 79.0622V89.3747H18.9062V79.0622H13.75ZM22.3438 79.0622V89.3747H25.7812V79.0622H22.3438ZM29.2188 79.0622V89.3747H32.6562V79.0622H29.2188ZM36.0938 79.0622V89.3747H39.5312V79.0622H36.0938ZM42.9688 79.0622V89.3747H46.4062V79.0622H42.9688ZM49.8438 79.0622V89.3747H53.2812V79.0622H49.8438ZM56.7188 79.0622V89.3747H60.1562V79.0622H56.7188ZM63.5938 79.0622V89.3747H68.75V79.0622H63.5938ZM13.75 61.8747V75.6247H68.75V61.8747H13.75ZM10.3125 61.8747H6.875V96.2497H10.3125V61.8747ZM5.15625 101.406H104.844V99.6872H5.15625V101.406Z" fill="white"/>
<path d="M75.625 27.4997V6.87465C75.6251 6.61833 75.6824 6.36527 75.7929 6.134C75.9034 5.90272 76.0643 5.69909 76.2637 5.53802C76.4631 5.37694 76.6959 5.2625 76.9453 5.20308C77.1946 5.14365 77.4541 5.14075 77.7047 5.19458L101.767 10.3508C102.152 10.4334 102.496 10.6452 102.743 10.9509C102.99 11.2566 103.125 11.6378 103.125 12.0309V50.3805M75.625 27.4997V30.9372M75.625 27.4997H72.5098M75.625 30.9372V34.3747H13.75V30.9372H72.5098M75.625 30.9372H72.5098M72.5098 27.4997H12.0312C11.5754 27.4997 11.1382 27.6807 10.8159 28.0031C10.4936 28.3254 10.3125 28.7626 10.3125 29.2184V44.6872H5.15625C4.70041 44.6872 4.26324 44.8682 3.94091 45.1906C3.61858 45.5129 3.4375 45.9501 3.4375 46.4059V96.2497C2.98166 96.2497 2.54449 96.4307 2.22216 96.7531C1.89983 97.0754 1.71875 97.5126 1.71875 97.9684V103.125C1.71875 103.581 1.89983 104.018 2.22216 104.34C2.54449 104.662 2.98166 104.843 3.4375 104.843H106.562C107.018 104.843 107.456 104.662 107.778 104.34C108.1 104.018 108.281 103.581 108.281 103.125V97.9684C108.281 97.5126 108.1 97.0754 107.778 96.7531C107.456 96.4307 107.018 96.2497 106.562 96.2497V73.9059C106.562 73.5867 106.474 73.2737 106.306 73.0021C106.138 72.7304 105.898 72.5107 105.613 72.3676L103.125 71.1258V54.57M72.5098 27.4997C73.5233 28.8965 73.5611 29.6481 72.5098 30.9372M37.2754 51.5622H6.875V48.1247H75.625V51.5622C75.625 51.5622 41.4648 51.5622 40.9277 51.5622M37.2754 51.5622C38.1177 52.9523 38.1434 53.7064 37.2754 54.9997M37.2754 51.5622C37.2754 51.5622 40.3906 51.5621 40.9277 51.5622M37.2754 54.9997H6.875V58.4372H75.625V54.9997H40.9277M37.2754 54.9997H40.9277M40.9277 54.9997C40.2254 53.8972 40.2254 52.6646 40.9277 51.5622M99.6875 50.3805V13.4209L79.0625 9.00161V59.0946L99.6875 69.4071V54.57M99.6875 50.3805C101.102 51.4259 101.859 51.4293 103.125 50.3805M99.6875 50.3805V54.57M103.125 50.3805V54.57M103.125 54.57C101.817 53.1237 101.073 53.1581 99.6875 54.57M79.0625 62.936L103.125 74.9672V96.2497H79.0625V62.936ZM75.625 37.8122V44.6872H72.1875V37.8122H75.625ZM68.75 37.8122V44.6872H65.3125V37.8122H68.75ZM61.875 37.8122V44.6872H46.4062V37.8122H61.875ZM42.9688 37.8122V44.6872H39.5312V37.8122H42.9688ZM36.0938 37.8122V44.6872H20.625V37.8122H36.0938ZM13.75 37.8122H17.1875V44.6872H13.75V37.8122ZM75.625 61.8747V96.2497H72.1875V61.8747H75.625ZM68.75 92.8122V96.2497H13.75V92.8122H68.75ZM13.75 89.3747V79.0622H18.9062V89.3747H13.75ZM22.3438 89.3747V79.0622H25.7812V89.3747H22.3438ZM29.2188 89.3747V79.0622H32.6562V89.3747H29.2188ZM36.0938 89.3747V79.0622H39.5312V89.3747H36.0938ZM42.9688 89.3747V79.0622H46.4062V89.3747H42.9688ZM49.8438 89.3747V79.0622H53.2812V89.3747H49.8438ZM56.7188 89.3747V79.0622H60.1562V89.3747H56.7188ZM63.5938 89.3747V79.0622H68.75V89.3747H63.5938ZM13.75 75.6247V61.8747H68.75V75.6247H13.75ZM6.875 61.8747H10.3125V96.2497H6.875V61.8747ZM104.844 101.406H5.15625V99.6872H104.844V101.406Z" stroke="#3D482E" stroke-width="1.9"/>
<path d="M97.9688 75.625H84.2188C83.7629 75.625 83.3257 75.8061 83.0034 76.1284C82.6811 76.4507 82.5 76.8879 82.5 77.3438V91.0938C82.5 91.5496 82.6811 91.9868 83.0034 92.3091C83.3257 92.6314 83.7629 92.8125 84.2188 92.8125H97.9688C98.4246 92.8125 98.8618 92.6314 99.1841 92.3091C99.5064 91.9868 99.6875 91.5496 99.6875 91.0938V77.3438C99.6875 76.8879 99.5064 76.4507 99.1841 76.1284C98.8618 75.8061 98.4246 75.625 97.9688 75.625ZM96.25 89.375H85.9375V79.0625H96.25V89.375ZM84.2188 29.2188H94.5312C94.9871 29.2188 95.4243 29.0377 95.7466 28.7153C96.0689 28.393 96.25 27.9558 96.25 27.5V18.9062C96.25 18.4504 96.0689 18.0132 95.7466 17.6909C95.4243 17.3686 94.9871 17.1875 94.5312 17.1875H84.2188C83.7629 17.1875 83.3257 17.3686 83.0034 17.6909C82.6811 18.0132 82.5 18.4504 82.5 18.9062V27.5C82.5 27.9558 82.6811 28.393 83.0034 28.7153C83.3257 29.0377 83.7629 29.2188 84.2188 29.2188ZM85.9375 20.625H92.8125V25.7812H85.9375V20.625ZM84.2188 44.6875H94.5312C94.9871 44.6875 95.4243 44.5064 95.7466 44.1841C96.0689 43.8618 96.25 43.4246 96.25 42.9688V34.375C96.25 33.9192 96.0689 33.482 95.7466 33.1597C95.4243 32.8373 94.9871 32.6562 94.5312 32.6562H84.2188C83.7629 32.6562 83.3257 32.8373 83.0034 33.1597C82.6811 33.482 82.5 33.9192 82.5 34.375V42.9688C82.5 43.4246 82.6811 43.8618 83.0034 44.1841C83.3257 44.5064 83.7629 44.6875 84.2188 44.6875ZM85.9375 36.0938H92.8125V41.25H85.9375V36.0938Z" fill="white" stroke="#3D482E" stroke-width="1.9"/>
</svg>
