<svg width="128" height="94" viewBox="0 0 128 94" fill="none" xmlns="http://www.w3.org/2000/svg">
<path d="M69.5333 72.7082H90.09C90.4307 72.7082 90.7575 72.5728 90.9985 72.3319C91.2394 72.0909 91.3748 71.7641 91.3748 71.4234V16.9482C91.3747 16.6842 91.2932 16.4266 91.1415 16.2105C90.9898 15.9944 90.7751 15.8303 90.5268 15.7405L80.2485 12.0403L69.9702 8.29385C69.7748 8.2255 69.5661 8.20385 69.3609 8.23062C69.1556 8.25739 68.9595 8.33185 68.7882 8.44803C68.62 8.56755 68.4828 8.72551 68.3881 8.90876C68.2933 9.09202 68.2437 9.29526 68.2434 9.50156V71.4234C68.2434 71.5925 68.2768 71.76 68.3417 71.9162C68.4066 72.0724 68.5017 72.2143 68.6215 72.3337C68.7414 72.453 68.8836 72.5476 69.0401 72.6118C69.1966 72.6761 69.3642 72.7088 69.5333 72.7082ZM88.8052 49.5819H81.0965V31.5948H88.8052V49.5819ZM78.5269 49.5819H70.8181V31.5948H78.5269V49.5819ZM70.8181 52.1515H78.5269V70.1386H70.8181V52.1515ZM81.0965 70.1386V52.1515H88.8052V70.1386H81.0965ZM88.8052 29.0252H81.0965V15.0724L88.8052 17.8527V29.0252ZM78.5269 14.1217V29.0252H70.8181V11.3362L78.5269 14.1217Z" fill="white" stroke="#3D482E" stroke-width="1.3"/>
<path fill-rule="evenodd" clip-rule="evenodd" d="M126.506 43.9546L96.5143 33.0133V13.3509C96.5149 13.0866 96.4338 12.8287 96.2819 12.6125C96.1301 12.3962 95.915 12.2323 95.6663 12.1432L64.8313 0.934639C64.7834 0.932113 64.7354 0.932113 64.6874 0.934639C64.591 0.915684 64.4928 0.907069 64.3945 0.908943C64.2979 0.907278 64.2015 0.915893 64.1067 0.934639C64.0571 0.931845 64.0073 0.931845 63.9577 0.934639L33.1227 12.1432C32.874 12.2323 32.6589 12.3962 32.5071 12.6125C32.3553 12.8287 32.2741 13.0866 32.2747 13.3509V33.0133L2.28255 43.9546C2.03436 44.0439 1.82 44.2081 1.66905 44.4244C1.51809 44.6407 1.43796 44.8985 1.43973 45.1623V91.9801C1.43973 92.3208 1.57509 92.6476 1.81603 92.8886C2.05698 93.1295 2.38377 93.2649 2.72452 93.2649H126.064C126.405 93.2649 126.732 93.1295 126.973 92.8886C127.214 92.6476 127.349 92.3208 127.349 91.9801V72.4535C126.393 71.3033 125.836 71.2783 124.78 72.4535V90.6953H96.5143V35.7473L124.78 46.0565V68.3759C125.822 69.1012 126.412 69.1453 127.349 68.3759V45.1623C127.351 44.8985 127.271 44.6407 127.12 44.4244C126.969 44.2081 126.755 44.0439 126.506 43.9546ZM93.9447 33.9075V75.2778H65.6793V35.7473C64.6378 34.5768 64.0876 34.5903 63.1097 35.7473V75.2778H34.8443V14.2502L63.1097 3.97188V29.5725C64.1125 30.5616 64.6765 30.4979 65.6793 29.5725V3.97703L93.9447 14.2554V33.9075ZM4.00931 46.0565L32.2747 35.7473V90.6953H4.00931V46.0565ZM93.9447 77.8474V90.6953H91.3751V81.7018C91.3751 81.361 91.2398 81.0342 90.9988 80.7933C90.7579 80.5523 90.4311 80.417 90.0903 80.417H38.6987C38.3579 80.417 38.0311 80.5523 37.7902 80.7933C37.5492 81.0342 37.4139 81.361 37.4139 81.7018V90.6953H34.8443V77.8474H93.9447ZM39.9835 90.6953V82.9866H88.8055V90.6953H39.9835Z" fill="white"/>
<path d="M127.349 68.5712V68.3759M127.349 68.3759V45.1623C127.351 44.8985 127.271 44.6407 127.12 44.4244C126.969 44.2081 126.755 44.0439 126.506 43.9546L96.5143 33.0133V13.3509C96.5149 13.0866 96.4338 12.8287 96.2819 12.6125C96.1301 12.3962 95.915 12.2323 95.6663 12.1432L64.8313 0.934639C64.7834 0.932113 64.7354 0.932113 64.6874 0.934639C64.591 0.915684 64.4928 0.907069 64.3945 0.908943C64.2979 0.907278 64.2015 0.915893 64.1067 0.934639C64.0571 0.931845 64.0073 0.931845 63.9577 0.934639L33.1227 12.1432C32.874 12.2323 32.6589 12.3962 32.5071 12.6125C32.3553 12.8287 32.2741 13.0866 32.2747 13.3509V33.0133L2.28255 43.9546C2.03436 44.0439 1.82 44.2081 1.66905 44.4244C1.51809 44.6407 1.43796 44.8985 1.43973 45.1623V91.9801C1.43973 92.3208 1.57509 92.6476 1.81603 92.8886C2.05698 93.1295 2.38377 93.2649 2.72452 93.2649H126.064C126.405 93.2649 126.732 93.1295 126.973 92.8886C127.214 92.6476 127.349 92.3208 127.349 91.9801V72.4535C126.393 71.3033 125.836 71.2783 124.78 72.4535V90.6953H96.5143V35.7473L124.78 46.0565V68.3759C125.822 69.1012 126.412 69.1453 127.349 68.3759ZM93.9447 33.9075V75.2778H65.6793V35.7473C64.6378 34.5768 64.0876 34.5903 63.1097 35.7473V75.2778H34.8443V14.2502L63.1097 3.97188V29.5725C64.1125 30.5616 64.6765 30.4979 65.6793 29.5725V3.97703L93.9447 14.2554V33.9075ZM4.00931 46.0565L32.2747 35.7473V90.6953H4.00931V46.0565ZM34.8443 77.8474H93.9447V90.6953H91.3751V81.7018C91.3751 81.361 91.2398 81.0342 90.9988 80.7933C90.7579 80.5523 90.4311 80.417 90.0903 80.417H38.6987C38.3579 80.417 38.0311 80.5523 37.7902 80.7933C37.5492 81.0342 37.4139 81.361 37.4139 81.7018V90.6953H34.8443V77.8474ZM39.9835 90.6953V82.9866H88.8055V90.6953H39.9835Z" stroke="#3D482E" stroke-width="1.3"/>
<path fill-rule="evenodd" clip-rule="evenodd" d="M120.926 88.1257H100.369C100.028 88.1257 99.7016 87.9903 99.4606 87.7494C99.2197 87.5084 99.0843 87.1816 99.0843 86.8409V41.2308C99.0887 41.0288 99.1402 40.8307 99.2348 40.6523C99.3294 40.4738 99.4644 40.3199 99.6291 40.2029C99.7993 40.0841 99.9958 40.0084 100.202 39.9825C100.408 39.9565 100.617 39.981 100.811 40.0539L121.368 47.5468C121.616 47.6368 121.829 47.8011 121.98 48.0173C122.131 48.2334 122.212 48.4909 122.211 48.7545V86.8409C122.211 87.1816 122.075 87.5084 121.834 87.7494C121.593 87.9903 121.267 88.1257 120.926 88.1257ZM109.363 72.7082H101.654V85.5561H109.363V72.7082ZM111.932 72.7082V85.5561H119.641V72.7082H111.932ZM111.932 70.1386H119.641V49.6539L111.932 46.8427V70.1386ZM109.363 70.1386V45.9023L101.654 43.0912V70.1386H109.363ZM59.2558 72.7082H38.6991C38.53 72.7088 38.3624 72.6761 38.2059 72.6118C38.0494 72.5476 37.9072 72.4531 37.7873 72.3337C37.6675 72.2143 37.5724 72.0724 37.5075 71.9162C37.4426 71.76 37.4092 71.5925 37.4092 71.4234V16.9431C37.4093 16.679 37.4908 16.4214 37.6425 16.2053C37.7942 15.9892 38.0089 15.8251 38.2572 15.7354L48.5355 12.0352L58.8138 8.28873C59.0092 8.22038 59.2179 8.19872 59.4231 8.22549C59.6284 8.25226 59.8245 8.32672 59.9958 8.4429C60.164 8.56242 60.3012 8.72039 60.3959 8.90364C60.4907 9.08689 60.5403 9.29013 60.5406 9.49643V71.4234C60.5406 71.7641 60.4052 72.0909 60.1643 72.3319C59.9233 72.5728 59.5965 72.7082 59.2558 72.7082ZM50.2623 49.5819H57.971V31.5948H50.2623V49.5819ZM39.9839 49.5819H47.6927V31.5948H39.9839V49.5819ZM47.6927 52.1515H39.9839V70.1386H47.6927V52.1515ZM50.2623 52.1515V70.1386H57.971V52.1515H50.2623ZM50.2623 29.0253H57.971V11.3157L50.2623 14.1217V29.0253ZM47.6927 29.0253V15.0724L39.9839 17.8527V29.0253H47.6927ZM7.42218 47.5674L27.9788 40.0745C28.1735 40.0019 28.383 39.978 28.589 40.0048C28.795 40.0317 28.9913 40.1085 29.1609 40.2286C29.3255 40.3456 29.4605 40.4995 29.5551 40.678C29.6497 40.8564 29.7012 41.0545 29.7056 41.2565V86.8409C29.7056 87.1816 29.5702 87.5084 29.3293 87.7494C29.0884 87.9903 28.7616 88.1257 28.4208 88.1257H7.86415C7.5234 88.1257 7.19661 87.9903 6.95566 87.7494C6.71472 87.5084 6.57936 87.1816 6.57936 86.8409V48.7751C6.57834 48.5115 6.65876 48.254 6.80962 48.0378C6.96048 47.8217 7.17441 47.6574 7.42218 47.5674ZM19.4273 70.1386H27.136V43.0912L19.4273 45.9023V70.1386ZM16.8577 70.1386V46.8427L9.14894 49.6539V70.1386H10.7273C11.2071 71.186 11.1935 71.7421 10.7273 72.7082H9.14894V85.5561H16.8577V72.7082H13.7083C13.2387 71.7141 13.254 71.1599 13.7083 70.1386H16.8577ZM19.4273 72.7082V85.5561H27.136V72.7082H19.4273Z" fill="white" stroke="#3D482E" stroke-width="1.3"/>
</svg>
