<svg width="100" height="100" viewBox="0 0 100 100" fill="none" xmlns="http://www.w3.org/2000/svg">
<path d="M40.8186 40.7239V42.7022M59.1807 40.7239V42.7022M32.5275 71.8592H34.25M65.7492 71.8592H67.4715M19.6807 79.2243V84.9725C19.6807 85.5749 20.1689 86.0631 20.7713 86.0631H46.0061C46.6084 86.0631 47.0967 85.5749 47.0967 84.9725V67.8016C47.0967 67.1993 46.6084 66.711 46.0061 66.711H20.7713C20.482 66.711 20.2046 66.8259 20.0001 67.0304C19.7956 67.235 19.6807 67.5124 19.6807 67.8016V73.5602M27.1937 98.2971H17.8758V91.7274H31.6664C28.2383 93.551 26.3545 95.6667 27.1937 98.2971ZM72.8055 98.2971H82.1234V91.7274H68.3328C71.7609 93.551 73.6447 95.6667 72.8055 98.2971ZM53.993 60.9055H79.2277C79.8301 60.9055 80.3184 60.4172 80.3184 59.8149V16.2002C80.3184 15.5979 79.8301 15.1096 79.2277 15.1096H53.993C53.7037 15.1096 53.4263 15.2245 53.2218 15.4291C53.0172 15.6336 52.9023 15.911 52.9023 16.2002V59.8149C52.9023 60.4172 53.3906 60.9055 53.993 60.9055ZM47.0969 59.8149V16.2002C47.0969 15.5979 46.6086 15.1096 46.0062 15.1096H20.7713C20.482 15.1096 20.2046 15.2245 20.0001 15.4291C19.7956 15.6336 19.6807 15.911 19.6807 16.2002V59.8149C19.6807 60.4172 20.1689 60.9055 20.7713 60.9055H46.0061C46.6086 60.9055 47.0969 60.4172 47.0969 59.8149ZM52.9023 67.8016V84.9725C52.9023 85.5749 53.3906 86.0631 53.993 86.0631H79.2277C79.8301 86.0631 80.3184 85.5749 80.3184 84.9725V67.8016C80.3184 67.1993 79.8301 66.711 79.2277 66.711H53.993C53.7037 66.711 53.4264 66.826 53.2218 67.0305C53.0173 67.235 52.9024 67.5124 52.9023 67.8016Z" stroke="white" stroke-width="1.5" stroke-miterlimit="10" stroke-linecap="round" stroke-linejoin="round"/>
<path d="M85.9828 59.4299V9.44556M85.9828 9.44556H14.0172M85.9828 9.44556L90.3146 1.22681H30.4355M14.0172 9.44556V90.0881C14.0172 90.5229 14.1899 90.9398 14.4972 91.2472C14.8046 91.5546 15.2215 91.7273 15.6562 91.7274H84.3437C84.7785 91.7273 85.1954 91.5546 85.5028 91.2472C85.8101 90.9398 85.9828 90.5229 85.9828 90.0881V65.094M14.0172 9.44556L9.68535 1.22681H24.7715" stroke="white" stroke-width="1.5" stroke-miterlimit="10" stroke-linecap="round" stroke-linejoin="round"/>
</svg>
