<svg width="114" height="100" viewBox="0 0 114 100" fill="none" xmlns="http://www.w3.org/2000/svg">
<g clip-path="url(#clip0_89_10751)">
<path d="M7.59088 76.5933C7.91926 76.255 8.09981 75.8001 8.09281 75.3287C8.0858 74.8573 7.89183 74.408 7.55355 74.0796C6.07275 72.6471 4.47555 71.3401 2.77844 70.172C2.51575 69.9973 2.2113 69.8956 1.89634 69.8774C1.58137 69.8592 1.26724 69.9252 0.986191 70.0685C0.705141 70.2118 0.467297 70.4274 0.29707 70.693C0.126844 70.9586 0.0303689 71.2648 0.0175498 71.58C-0.0233391 72.5951 -0.236673 80.8636 3.11799 85.7347C2.7857 85.76 2.46734 85.8787 2.19965 86.0772C1.93196 86.2757 1.72584 86.5458 1.6051 86.8564C1.51622 87.0893 -0.519339 92.6147 3.27622 98.3764C3.91977 99.3524 5.02022 99.9338 6.22377 99.9338H20.6291C21.8309 99.9338 22.9331 99.3524 23.5767 98.3764C27.3687 92.6164 25.3349 87.0876 25.246 86.8564C25.1456 86.594 24.9837 86.3593 24.774 86.1722C24.5643 85.9851 24.3129 85.8509 24.0407 85.7809C27.4291 80.9151 27.214 72.5969 27.1731 71.5782C27.1597 71.2632 27.0629 70.9575 26.8926 70.6922C26.7222 70.4269 26.4845 70.2116 26.2036 70.0684C25.9228 69.9252 25.6089 69.8591 25.2941 69.877C24.9794 69.8949 24.675 69.9961 24.4122 70.1702C24.2184 70.3 20.7429 72.6342 17.9127 75.8982C17.1906 73.4459 16.2053 71.079 14.974 68.8387C14.3447 67.7204 12.5047 67.7204 11.8753 68.8387C11.326 69.8147 6.57399 78.54 8.58111 84.5951C8.69488 84.9382 8.85666 85.2404 9.00777 85.5533C8.98644 85.596 8.97399 85.6404 8.95088 85.6831C8.10644 85.5782 7.38822 85.2209 6.7411 84.5827C4.75888 82.6271 3.9571 78.5667 3.67977 75.356C4.12777 75.7436 4.60066 76.1702 5.07533 76.6307C5.24287 76.7935 5.44089 76.9218 5.65804 77.008C5.87518 77.0943 6.10721 77.1369 6.34084 77.1335C6.57448 77.13 6.80514 77.0805 7.01963 76.9878C7.23412 76.8952 7.42824 76.7611 7.59088 76.5933ZM20.6309 96.38L20.6273 96.3782L6.24511 96.4191C4.34466 93.532 4.40866 90.7622 4.65222 89.2671H9.38288C9.42199 89.2671 9.45755 89.2778 9.49488 89.2778C9.62822 89.2778 9.76155 89.2724 9.89666 89.2671H17.2922C17.4273 89.2724 17.5607 89.2778 17.694 89.2778C17.7331 89.2778 17.7687 89.2671 17.806 89.2671H22.1971C22.4407 90.7551 22.5064 93.5071 20.6309 96.38ZM23.5091 75.3596C23.2318 78.5702 22.4318 82.6307 20.4495 84.5844C19.806 85.2191 19.0913 85.5764 18.254 85.6831C18.1639 85.5109 18.0873 85.332 18.0247 85.148C18.1029 84.9613 18.2042 84.7942 18.27 84.5969C18.6593 83.42 18.7891 82.1418 18.75 80.8387C19.9109 78.748 21.8576 76.78 23.5091 75.3596ZM13.4273 73.8609C14.6415 76.844 15.774 80.8244 14.894 83.4769C14.6078 84.3409 14.1331 84.9898 13.4255 85.468C12.7198 84.988 12.2451 84.3427 11.9571 83.4804C11.0789 80.8369 12.2131 76.8493 13.4273 73.8609Z" fill="white" stroke="#3D482E" stroke-width="1.8"/>
<path fill-rule="evenodd" clip-rule="evenodd" d="M85.3333 92.4444H92.4444H97.7778C98.2493 92.4444 98.7015 92.2571 99.0349 91.9237C99.3683 91.5903 99.5556 91.1382 99.5556 90.6667V83.5556C99.5556 83.0841 99.3683 82.6319 99.0349 82.2985C98.7015 81.9651 98.2493 81.7778 97.7778 81.7778V51.5556C97.7779 51.3019 97.7237 51.0513 97.6188 50.8204C97.5139 50.5894 97.3608 50.3837 97.1698 50.2169L40.2809 0.439111C40.2395 0.403192 40.1922 0.380602 40.1445 0.357875C40.1144 0.343482 40.0841 0.329034 40.0551 0.311111C40.0366 0.299199 40.0183 0.287121 40 0.275062C39.9145 0.218735 39.8297 0.16283 39.7316 0.126222C39.6276 0.0870612 39.5237 0.0734221 39.4165 0.0593574C39.3972 0.0568213 39.3778 0.0542714 39.3582 0.0515556C39.3263 0.0461144 39.2956 0.0372904 39.2649 0.0284685C39.2155 0.0142316 39.166 0 39.1111 0H1.77778C1.30628 0 0.854097 0.187301 0.520699 0.520699C0.187301 0.854097 0 1.30628 0 1.77778C0 2.24927 0.187301 2.70146 0.520699 3.03486C0.854097 3.36825 1.30628 3.55556 1.77778 3.55556V32C1.30628 32 0.854097 32.1873 0.520699 32.5207C0.187301 32.8541 0 33.3063 0 33.7778L0 40.8889C0 41.3604 0.187301 41.8126 0.520699 42.146C0.854097 42.4794 1.30628 42.6667 1.77778 42.6667H40.8889C41.3604 42.6667 41.8126 42.4794 42.146 42.146C42.4794 41.8126 42.6667 41.3604 42.6667 40.8889V39.2516L48.6009 44.4444H46.2222C45.7507 44.4444 45.2985 44.6317 44.9651 44.9651C44.6317 45.2985 44.4444 45.7507 44.4444 46.2222C44.4444 46.6937 44.6317 47.1459 44.9651 47.4793C45.2985 47.8127 45.7507 48 46.2222 48H53.3333V51.5556H39.1111V48H40.8889C41.3604 48 41.8126 47.8127 42.146 47.4793C42.4794 47.1459 42.6667 46.6937 42.6667 46.2222C42.6667 45.7507 42.4794 45.2985 42.146 44.9651C41.8126 44.6317 41.3604 44.4444 40.8889 44.4444H37.3333C36.8618 44.4444 36.4097 44.6317 36.0763 44.9651C35.7429 45.2985 35.5556 45.7507 35.5556 46.2222V53.3333C35.5556 53.8048 35.7429 54.257 36.0763 54.5904C36.4097 54.9238 36.8618 55.1111 37.3333 55.1111H42.6667H49.7778H55.1111C55.5826 55.1111 56.0348 54.9238 56.3682 54.5904C56.7016 54.257 56.8889 53.8048 56.8889 53.3333V51.696L62.8231 56.8889H51.5556C51.0841 56.8889 50.6319 57.0762 50.2985 57.4096C49.9651 57.743 49.7778 58.1952 49.7778 58.6667V65.7778C49.7778 66.2493 49.9651 66.7015 50.2985 67.0349C50.6319 67.3683 51.0841 67.5556 51.5556 67.5556H56.8889H64H69.3333C69.8048 67.5556 70.257 67.3683 70.5904 67.0349C70.9238 66.7015 71.1111 66.2493 71.1111 65.7778V64.1404L77.0453 69.3333H65.7778C65.3063 69.3333 64.8541 69.5206 64.5207 69.854C64.1873 70.1874 64 70.6396 64 71.1111V78.2222C64 78.6937 64.1873 79.1459 64.5207 79.4793C64.8541 79.8127 65.3063 80 65.7778 80H71.1111H78.2222H83.5556C84.0271 80 84.4792 79.8127 84.8126 79.4793C85.146 79.1459 85.3333 78.6937 85.3333 78.2222V76.5849L91.2676 81.7778H80C79.5285 81.7778 79.0763 81.9651 78.7429 82.2985C78.4095 82.6319 78.2222 83.0841 78.2222 83.5556V90.6667C78.2222 91.1382 78.4095 91.5903 78.7429 91.9237C79.0763 92.2571 79.5285 92.4444 80 92.4444H85.3333ZM37.3333 32V3.55556H5.33333V21.0933L16.64 11.6693C17.0023 11.3676 17.4697 11.2221 17.9393 11.265C18.4089 11.3078 18.8422 11.5354 19.144 11.8978C19.4458 12.2601 19.5912 12.7275 19.5484 13.1971C19.5055 13.6667 19.2779 14.1 18.9156 14.4018L5.33333 25.7209V31.4364L29.0649 11.0969C29.2417 10.944 29.447 10.8277 29.669 10.7546C29.8909 10.6814 30.1252 10.653 30.3582 10.6708C30.5912 10.6887 30.8184 10.7525 31.0267 10.8586C31.2349 10.9646 31.4201 11.1109 31.5716 11.2889C31.7237 11.4658 31.8394 11.6711 31.9121 11.8928C31.9848 12.1146 32.0131 12.3485 31.9952 12.5812C31.9774 12.8138 31.9138 13.0407 31.8082 13.2488C31.7025 13.4569 31.5569 13.6421 31.3796 13.7938L10.1387 32H37.3333ZM3.55556 39.1111H39.1111V35.5556H3.55556V39.1111ZM53.3333 64H67.5556V60.4444H53.3333V64ZM69.3333 33.7778V56.8889C69.8048 56.8889 70.257 57.0762 70.5904 57.4096C70.9238 57.743 71.1111 58.1952 71.1111 58.6667V59.4151L73.2871 61.3191L89.0329 47.8222L61.3849 23.632L58.0462 26.4942C57.8688 26.6462 57.6632 26.7618 57.4411 26.8343C57.219 26.9068 56.9848 26.9348 56.7519 26.9168C56.2814 26.8805 55.8447 26.6588 55.5378 26.3004C55.3858 26.123 55.2702 25.9174 55.1977 25.6953C55.1252 25.4732 55.0972 25.239 55.1152 25.0061C55.1331 24.7732 55.1968 24.5461 55.3026 24.3377C55.4084 24.1294 55.5541 23.944 55.7316 23.792L58.6809 21.264L40.8889 5.696V32C41.3604 32 41.8126 32.1873 42.146 32.5207C42.4794 32.8541 42.6667 33.3063 42.6667 33.7778V34.5262L42.9333 34.7627L45.6373 37.1271L54.0018 44.4444L55.1111 45.3333L55.8889 46L56.6667 46.6667L56.7778 46.8889L56.8889 46.9707L65.7778 54.7484V33.7778C65.7778 33.3063 65.9651 32.8541 66.2985 32.5207C66.6319 32.1873 67.0841 32 67.5556 32C68.0271 32 68.4792 32.1873 68.8126 32.5207C69.146 32.8541 69.3333 33.3063 69.3333 33.7778ZM67.5556 76.4444H81.7778V72.8889H67.5556V76.4444ZM82.4462 69.3333H83.5556C84.0271 69.3333 84.4792 69.5206 84.8126 69.854C85.146 70.1874 85.3333 70.6396 85.3333 71.1111V71.8578L94.2222 79.6356V59.4827L91.824 61.5413C91.6471 61.6938 91.4419 61.8098 91.22 61.8826C90.9981 61.9554 90.7641 61.9837 90.5312 61.9657C90.2984 61.9476 90.0715 61.8838 89.8634 61.7777C89.6554 61.6716 89.4704 61.5254 89.3191 61.3476C89.1668 61.1707 89.0508 60.9655 88.978 60.7437C88.9052 60.5219 88.8768 60.288 88.8947 60.0552C88.9125 59.8225 88.9762 59.5955 89.0819 59.3875C89.1877 59.1794 89.3336 58.9942 89.5111 58.8427L94.2222 54.8036V52.3627L91.7351 50.1867L75.9893 63.6836L82.4462 69.3333ZM96 85.3333H81.7778V88.8889H96V85.3333Z" fill="white"/>
<path d="M92.4444 92.4444V94.2222H103.111C103.583 94.2222 104.035 94.4095 104.368 94.7429C104.702 95.0763 104.889 95.5285 104.889 96C104.889 96.4715 104.702 96.9237 104.368 97.2571C104.035 97.5905 103.583 97.7778 103.111 97.7778H83.5556V101.333H110.222V97.7778H108.444C107.973 97.7778 107.521 97.5905 107.187 97.2571C106.854 96.9237 106.667 96.4715 106.667 96C106.667 95.5285 106.854 95.0763 107.187 94.7429C107.521 94.4095 107.973 94.2222 108.444 94.2222H112C112.471 94.2222 112.924 94.4095 113.257 94.7429C113.59 95.0763 113.778 95.5285 113.778 96V112C113.778 112.471 113.59 112.924 113.257 113.257C112.924 113.59 112.471 113.778 112 113.778H72.8889C72.4174 113.778 71.9652 113.59 71.6318 113.257C71.2984 112.924 71.1111 112.471 71.1111 112V103.111C71.1111 102.64 71.2984 102.187 71.6318 101.854C71.9652 101.521 72.4174 101.333 72.8889 101.333H80V96C80 95.5285 80.1873 95.0763 80.5207 94.7429C80.8541 94.4095 81.3063 94.2222 81.7778 94.2222H85.3333V92.4444M92.4444 92.4444H97.7778C98.2493 92.4444 98.7015 92.2571 99.0349 91.9237C99.3683 91.5903 99.5556 91.1382 99.5556 90.6667V83.5556C99.5556 83.0841 99.3683 82.6319 99.0349 82.2985C98.7015 81.9651 98.2493 81.7778 97.7778 81.7778V51.5556C97.7779 51.3019 97.7237 51.0513 97.6188 50.8204C97.5139 50.5894 97.3608 50.3837 97.1698 50.2169L40.2809 0.439111C40.2395 0.403192 40.1922 0.380602 40.1445 0.357875C40.1144 0.343482 40.0841 0.329034 40.0551 0.311111C40.0366 0.299199 40.0183 0.287121 40 0.275062C39.9145 0.218735 39.8297 0.16283 39.7316 0.126222C39.6276 0.0870612 39.5237 0.0734221 39.4165 0.0593574C39.3972 0.0568213 39.3778 0.0542714 39.3582 0.0515556C39.3263 0.0461144 39.2956 0.0372904 39.2649 0.0284685C39.2155 0.0142316 39.166 0 39.1111 0H1.77778C1.30628 0 0.854097 0.187301 0.520699 0.520699C0.187301 0.854097 0 1.30628 0 1.77778C0 2.24927 0.187301 2.70146 0.520699 3.03486C0.854097 3.36825 1.30628 3.55556 1.77778 3.55556V32C1.30628 32 0.854097 32.1873 0.520699 32.5207C0.187301 32.8541 0 33.3063 0 33.7778L0 40.8889C0 41.3604 0.187301 41.8126 0.520699 42.146C0.854097 42.4794 1.30628 42.6667 1.77778 42.6667H40.8889C41.3604 42.6667 41.8126 42.4794 42.146 42.146C42.4794 41.8126 42.6667 41.3604 42.6667 40.8889V39.2516L48.6009 44.4444H46.2222C45.7507 44.4444 45.2985 44.6317 44.9651 44.9651C44.6317 45.2985 44.4444 45.7507 44.4444 46.2222C44.4444 46.6937 44.6317 47.1459 44.9651 47.4793C45.2985 47.8127 45.7507 48 46.2222 48H53.3333V51.5556H39.1111V48H40.8889C41.3604 48 41.8126 47.8127 42.146 47.4793C42.4794 47.1459 42.6667 46.6937 42.6667 46.2222C42.6667 45.7507 42.4794 45.2985 42.146 44.9651C41.8126 44.6317 41.3604 44.4444 40.8889 44.4444H37.3333C36.8618 44.4444 36.4097 44.6317 36.0763 44.9651C35.7429 45.2985 35.5556 45.7507 35.5556 46.2222V53.3333C35.5556 53.8048 35.7429 54.257 36.0763 54.5904C36.4097 54.9238 36.8618 55.1111 37.3333 55.1111H42.6667M92.4444 92.4444H85.3333M42.6667 55.1111V56.8889C42.6667 57.3604 42.854 57.8126 43.1874 58.146C43.5208 58.4794 43.9729 58.6667 44.4444 58.6667H48C48.4715 58.6667 48.9237 58.4794 49.2571 58.146C49.5905 57.8126 49.7778 57.3604 49.7778 56.8889V55.1111M42.6667 55.1111H49.7778M49.7778 55.1111H55.1111C55.5826 55.1111 56.0348 54.9238 56.3682 54.5904C56.7016 54.257 56.8889 53.8048 56.8889 53.3333V51.696L62.8231 56.8889H51.5556C51.0841 56.8889 50.6319 57.0762 50.2985 57.4096C49.9651 57.743 49.7778 58.1952 49.7778 58.6667V65.7778C49.7778 66.2493 49.9651 66.7015 50.2985 67.0349C50.6319 67.3683 51.0841 67.5556 51.5556 67.5556H56.8889M56.8889 67.5556V69.3333C56.8889 69.8048 57.0762 70.257 57.4096 70.5904C57.743 70.9238 58.1952 71.1111 58.6667 71.1111H62.2222C62.6937 71.1111 63.1459 70.9238 63.4793 70.5904C63.8127 70.257 64 69.8048 64 69.3333V67.5556M56.8889 67.5556H64M64 67.5556H69.3333C69.8048 67.5556 70.257 67.3683 70.5904 67.0349C70.9238 66.7015 71.1111 66.2493 71.1111 65.7778V64.1404L77.0453 69.3333H65.7778C65.3063 69.3333 64.8541 69.5206 64.5207 69.854C64.1873 70.1874 64 70.6396 64 71.1111V78.2222C64 78.6937 64.1873 79.1459 64.5207 79.4793C64.8541 79.8127 65.3063 80 65.7778 80H71.1111M71.1111 80V81.7778C71.1111 82.2493 71.2984 82.7015 71.6318 83.0349C71.9652 83.3683 72.4174 83.5556 72.8889 83.5556H76.4444C76.9159 83.5556 77.3681 83.3683 77.7015 83.0349C78.0349 82.7015 78.2222 82.2493 78.2222 81.7778V80M71.1111 80H78.2222M78.2222 80H83.5556C84.0271 80 84.4792 79.8127 84.8126 79.4793C85.146 79.1459 85.3333 78.6937 85.3333 78.2222V76.5849L91.2676 81.7778H80C79.5285 81.7778 79.0763 81.9651 78.7429 82.2985C78.4095 82.6319 78.2222 83.0841 78.2222 83.5556V90.6667C78.2222 91.1382 78.4095 91.5903 78.7429 91.9237C79.0763 92.2571 79.5285 92.4444 80 92.4444H85.3333M45.6373 37.1271L54.0018 44.4444L55.1111 45.3333L55.8889 46L56.6667 46.6667L56.7778 46.8889L56.8889 46.9707L65.7778 54.7484V33.7778C65.7778 33.3063 65.9651 32.8541 66.2985 32.5207C66.6319 32.1873 67.0841 32 67.5556 32C68.0271 32 68.4792 32.1873 68.8126 32.5207C69.146 32.8541 69.3333 33.3063 69.3333 33.7778V56.8889C69.8048 56.8889 70.257 57.0762 70.5904 57.4096C70.9238 57.743 71.1111 58.1952 71.1111 58.6667V59.4151L73.2871 61.3191L89.0329 47.8222L61.3849 23.632L58.0462 26.4942C57.8688 26.6462 57.6632 26.7618 57.4411 26.8343C57.219 26.9068 56.9848 26.9348 56.7519 26.9168C56.2814 26.8805 55.8447 26.6588 55.5378 26.3004C55.3858 26.123 55.2702 25.9174 55.1977 25.6953C55.1252 25.4732 55.0972 25.239 55.1152 25.0061C55.1331 24.7732 55.1968 24.5461 55.3026 24.3377C55.4084 24.1294 55.5541 23.944 55.7316 23.792L58.6809 21.264L40.8889 5.696V32C41.3604 32 41.8126 32.1873 42.146 32.5207C42.4794 32.8541 42.6667 33.3063 42.6667 33.7778V34.5262L42.9333 34.7627M45.6373 37.1271L52.7111 31.0631C52.8884 30.9114 53.0341 30.7262 53.1398 30.5181C53.2454 30.3101 53.309 30.0832 53.3268 29.8505C53.3446 29.6178 53.3164 29.3839 53.2437 29.1622C53.171 28.9404 53.0552 28.7352 52.9031 28.5582C52.7517 28.3802 52.5665 28.234 52.3582 28.1279C52.15 28.0218 51.9228 27.958 51.6898 27.9402C51.4567 27.9223 51.2225 27.9508 51.0005 28.0239C50.7785 28.097 50.5732 28.2134 50.3964 28.3662L42.9333 34.7627M45.6373 37.1271L42.9333 34.7627M37.3333 3.55556V32H10.1387L31.3796 13.7938C31.5569 13.6421 31.7025 13.4569 31.8082 13.2488C31.9138 13.0407 31.9774 12.8138 31.9952 12.5812C32.0131 12.3485 31.9848 12.1146 31.9121 11.8928C31.8394 11.6711 31.7237 11.4658 31.5716 11.2889C31.4201 11.1109 31.2349 10.9646 31.0267 10.8586C30.8184 10.7525 30.5912 10.6887 30.3582 10.6708C30.1252 10.653 29.8909 10.6814 29.669 10.7546C29.447 10.8277 29.2417 10.944 29.0649 11.0969L5.33333 31.4364V25.7209L18.9156 14.4018C19.2779 14.1 19.5055 13.6667 19.5484 13.1971C19.5912 12.7275 19.4458 12.2601 19.144 11.8978C18.8422 11.5354 18.4089 11.3078 17.9393 11.265C17.4697 11.2221 17.0023 11.3676 16.64 11.6693L5.33333 21.0933V3.55556H37.3333ZM39.1111 39.1111H3.55556V35.5556H39.1111V39.1111ZM67.5556 64H53.3333V60.4444H67.5556V64ZM81.7778 76.4444H67.5556V72.8889H81.7778V76.4444ZM83.5556 69.3333H82.4462L75.9893 63.6836L91.7351 50.1867L94.2222 52.3627V54.8036L89.5111 58.8427C89.3336 58.9942 89.1877 59.1794 89.082 59.3875C88.9762 59.5955 88.9125 59.8225 88.8947 60.0552C88.8768 60.288 88.9052 60.522 88.978 60.7437C89.0508 60.9655 89.1668 61.1707 89.3191 61.3476C89.4704 61.5254 89.6554 61.6716 89.8634 61.7777C90.0715 61.8838 90.2984 61.9476 90.5312 61.9657C90.7641 61.9837 90.9981 61.9554 91.22 61.8826C91.4419 61.8098 91.6471 61.6938 91.824 61.5413L94.2222 59.4827V79.6356L85.3333 71.8578V71.1111C85.3333 70.6396 85.146 70.1874 84.8126 69.854C84.4792 69.5206 84.0271 69.3333 83.5556 69.3333ZM81.7778 85.3333H96V88.8889H81.7778V85.3333ZM110.222 110.222H74.6667V104.889H110.222V110.222Z" stroke="#3D482E" stroke-width="1.7"/>
<path d="M99.556 0C99.0845 0 98.6323 0.187301 98.2989 0.520699C97.9655 0.854097 97.7782 1.30628 97.7782 1.77778V25.216C96.7414 25.5815 95.843 26.2588 95.2064 27.1552C94.5698 28.0515 94.2262 29.1228 94.2227 30.2222V35.5556C94.2227 37.5164 95.8173 39.1111 97.7782 39.1111H101.334C103.295 39.1111 104.889 37.5164 104.889 35.5556V30.2222C104.886 29.1228 104.542 28.0515 103.906 27.1552C103.269 26.2588 102.371 25.5815 101.334 25.216V1.77778C101.334 1.30628 101.146 0.854097 100.813 0.520699C100.48 0.187301 100.027 0 99.556 0ZM97.7782 35.5556V30.2222C97.7782 29.7507 97.9655 29.2985 98.2989 28.9651C98.6323 28.6317 99.0845 28.4444 99.556 28.4444C100.027 28.4444 100.48 28.6317 100.813 28.9651C101.146 29.2985 101.334 29.7507 101.334 30.2222L101.337 35.5556H97.7782Z" fill="white" stroke="#3D482E" stroke-width="1.7"/>
<path d="M110.222 10.9938V1.77778C110.222 1.30628 110.035 0.854097 109.702 0.520699C109.368 0.187301 108.916 0 108.444 0C107.973 0 107.521 0.187301 107.187 0.520699C106.854 0.854097 106.667 1.30628 106.667 1.77778V10.9938C105.63 11.3593 104.731 12.0366 104.095 12.933C103.458 13.8293 103.115 14.9006 103.111 16V21.3333C103.111 23.2942 104.706 24.8889 106.667 24.8889H110.222C112.183 24.8889 113.778 23.2942 113.778 21.3333V16C113.774 14.9006 113.431 13.8293 112.794 12.933C112.157 12.0366 111.259 11.3593 110.222 10.9938ZM106.667 21.3333V16C106.667 15.5285 106.854 15.0763 107.187 14.7429C107.521 14.4095 107.973 14.2222 108.444 14.2222C108.916 14.2222 109.368 14.4095 109.702 14.7429C110.035 15.0763 110.222 15.5285 110.222 16L110.226 21.3333H106.667ZM22.7556 10.6667C23.1712 10.667 23.5737 10.5217 23.8933 10.256L26.0267 8.47822C26.2061 8.32881 26.3543 8.14552 26.4629 7.93882C26.5715 7.73212 26.6383 7.50605 26.6595 7.27354C26.6807 7.04102 26.6559 6.8066 26.5865 6.58366C26.5171 6.36072 26.4045 6.15364 26.2551 5.97422C26.1057 5.79481 25.9224 5.64658 25.7157 5.538C25.509 5.42942 25.2829 5.36262 25.0504 5.34141C24.5808 5.29856 24.1135 5.44402 23.7511 5.74578L21.6178 7.52356C21.3373 7.75747 21.1356 8.07209 21.0403 8.42465C20.9449 8.77721 20.9604 9.15058 21.0847 9.494C21.209 9.83742 21.4361 10.1342 21.7351 10.344C22.034 10.5539 22.3903 10.6665 22.7556 10.6667ZM88.4604 62.08C88.1532 61.7224 87.7166 61.5015 87.2465 61.4658C86.7764 61.4302 86.3114 61.5827 85.9538 61.8898L82.3982 64.9387C82.221 65.0908 82.0755 65.2763 81.97 65.4846C81.8645 65.6929 81.8011 65.92 81.7833 66.1529C81.7656 66.3857 81.7939 66.6198 81.8666 66.8417C81.9393 67.0636 82.055 67.269 82.2071 67.4462C82.3592 67.6234 82.5447 67.7689 82.7531 67.8744C82.9614 67.9799 83.1885 68.0434 83.4213 68.0611C83.6542 68.0789 83.8882 68.0506 84.1101 67.9779C84.3321 67.9051 84.5375 67.7894 84.7147 67.6373L88.2702 64.5885C89.0133 63.9485 89.0987 62.8267 88.4604 62.08Z" fill="white" stroke="#3D482E" stroke-width="1.7"/>
</g>
<defs>
<clipPath id="clip0_89_10751">
<rect width="113.778" height="100" fill="white"/>
</clipPath>
</defs>
</svg>
