<svg width="100" height="101" viewBox="0 0 100 101" fill="none" xmlns="http://www.w3.org/2000/svg">
<path d="M78.0271 93.1758C81.2498 93.1758 83.8865 95.8125 83.8865 99.0352H89.7461C89.7461 95.8125 92.3828 93.1758 95.6055 93.1758M4.39453 93.1758C7.61719 93.1758 10.2539 95.8125 10.2539 99.0352H16.1133C16.1133 95.8125 18.75 93.1758 21.9727 93.1758M41.2109 93.1758C44.4336 93.1758 47.0703 95.8125 47.0703 99.0352H52.9297C52.9297 95.8125 55.5664 93.1758 58.7891 93.1758M69.043 93.1758H1.46484V87.3164H98.5352V93.1758H71.9727" stroke="white" stroke-width="1.5" stroke-miterlimit="22.9256"/>
<path d="M96.8752 69.7385C93.6525 69.7385 91.0158 72.3752 91.0158 75.5979V81.4574C91.0158 84.6797 88.3791 87.3168 85.1564 87.3168C81.9338 87.3168 79.2971 84.6801 79.2971 81.4574V75.5979C79.2971 72.3752 76.6603 69.7385 73.4377 69.7385C70.215 69.7385 67.5783 72.3752 67.5783 75.5979V81.4574C67.5783 84.6797 64.9416 87.3168 61.7189 87.3168C58.4963 87.3168 55.8596 84.6801 55.8596 81.4574V75.5977C55.8596 72.375 53.2228 69.7383 50.0002 69.7383C46.7775 69.7383 44.1408 72.375 44.1408 75.5977V81.4572C44.1408 84.6795 41.5041 87.3166 38.2814 87.3166C35.0588 87.3166 32.4221 84.6799 32.4221 81.4572V75.5977C32.4221 72.375 29.7853 69.7383 26.5627 69.7383C23.34 69.7383 20.7033 72.375 20.7033 75.5977V81.4572C20.7033 84.6799 18.0666 87.3166 14.8439 87.3166C11.6213 87.3166 8.98456 84.6797 8.98456 81.4572V75.5977C8.98456 72.375 6.34784 69.7383 3.12518 69.7383" stroke="white" stroke-width="1.5" stroke-miterlimit="22.9256"/>
<path d="M73.4381 87.3164V69.7385M26.5627 87.3164V69.7385M26.5627 57.4201V37.1213M20.7033 37.1215V57.4201M73.4381 57.4201V37.1213M73.4381 31.2619C73.4381 18.3828 62.8795 7.82422 50.0004 7.82422C37.1211 7.82422 26.5627 18.3826 26.5627 31.2619M20.7033 31.2619C20.7033 23.7465 23.5721 16.8691 28.2674 11.6687M30.4072 9.52891C35.6074 4.8334 42.485 1.96484 50.0004 1.96484C66.1139 1.96484 79.2975 15.1486 79.2975 31.2619M79.2975 37.1215V57.4201M3.125 63.8791H96.8756V69.7385H3.125V63.8791Z" stroke="white" stroke-width="1.5" stroke-miterlimit="22.9256"/>
<path d="M70.508 31.2619V37.1214H82.2268V31.2619H17.7733V37.1214H29.492V31.2619M50 31.2619L35.4633 12.9177M50 31.2619L64.5367 12.9177M50 31.2619V87.3164M51.4649 14.2951H54.3945M45.6055 14.2951H48.5352" stroke="white" stroke-width="1.5" stroke-miterlimit="22.9256"/>
<path d="M76.3674 63.8792C77.9854 63.8792 79.2971 61.2558 79.2971 58.0198C79.2971 54.7837 77.9854 52.1604 76.3674 52.1604C74.7493 52.1604 73.4377 54.7837 73.4377 58.0198C73.4377 61.2558 74.7493 63.8792 76.3674 63.8792Z" stroke="white" stroke-width="1.5" stroke-miterlimit="22.9256"/>
<path d="M80.1783 63.879C81.0098 63.4962 81.8789 62.932 82.7016 62.2081C85.1311 60.0706 86.2342 57.3529 85.1655 56.1382C84.1623 54.998 81.602 55.5872 79.2824 57.4318M72.5563 63.879C71.7248 63.4962 70.8557 62.932 70.033 62.2081C67.6035 60.0706 66.5004 57.3529 67.5692 56.1382C68.5723 54.998 71.1326 55.5872 73.4522 57.4318" stroke="white" stroke-width="1.5" stroke-miterlimit="22.9256"/>
<path d="M23.6326 63.8792C25.2507 63.8792 26.5623 61.2558 26.5623 58.0198C26.5623 54.7837 25.2507 52.1604 23.6326 52.1604C22.0146 52.1604 20.7029 54.7837 20.7029 58.0198C20.7029 61.2558 22.0146 63.8792 23.6326 63.8792Z" stroke="white" stroke-width="1.5" stroke-miterlimit="22.9256"/>
<path d="M19.8219 63.879C18.9905 63.4962 18.1213 62.932 17.2987 62.2081C14.8692 60.0706 13.766 57.3529 14.8348 56.1382C15.8379 54.998 18.3983 55.5872 20.718 57.4318M27.4442 63.879C28.2756 63.4962 29.1448 62.932 29.9674 62.2081C32.3969 60.0706 33.5 57.3529 32.4313 56.1382C31.4282 54.998 28.8678 55.5872 26.5481 57.4318" stroke="white" stroke-width="1.5" stroke-miterlimit="22.9256"/>
</svg>
