<svg width="100" height="100" viewBox="0 0 100 100" fill="none" xmlns="http://www.w3.org/2000/svg">
<path d="M19.5527 25.5355H13.6973M32.2441 25.5355H26.3887M86.3027 25.5355H67.7568M67.7568 25.5355L50 16.8613L32.2432 25.5355L50 34.21M67.7568 25.5355L50 34.21M80.082 92.2211H89.6563C94.5605 92.2211 98.5352 88.2465 98.5352 83.3441M1.46484 83.3441C1.46484 88.2465 5.43945 92.2211 10.3437 92.2211H73.2461M50 34.21V55.5803" stroke="white" stroke-width="1.5" stroke-miterlimit="10" stroke-linecap="round" stroke-linejoin="round"/>
<path d="M32.2432 25.5356V46.906L50 55.5804L67.7568 46.906V25.5356M86.3027 63.0864V72.4927C86.3027 73.5825 87.1855 74.4653 88.2754 74.4653H89.6563C94.5605 74.4653 98.5352 78.4399 98.5352 83.3442V16.6567C98.5352 11.7544 94.5605 7.77979 89.6563 7.77979H88.2754C87.1855 7.77979 86.3027 8.6626 86.3027 9.75244V56.2505M43.6865 77.0577H32.1348M25.8213 77.0577H22.0193M43.6865 83.3712H32.1348M25.8213 83.3712H22.0193M66.4289 83.3712H77.9807M56.3135 83.3712H60.1154M66.4289 77.0577H77.9807M56.3135 77.0577H60.1154M1.46484 83.3439C1.46484 78.4405 5.43984 74.4655 10.3432 74.4655H11.7242C12.8139 74.4655 13.6973 73.5821 13.6973 72.4925V9.75186C13.6973 8.66221 12.8139 7.77881 11.7242 7.77881H10.3432C5.43984 7.779 1.46484 11.754 1.46484 16.6573V83.3439ZM70.1588 64.4314H29.9102C29.4916 64.4314 29.0901 64.5976 28.7941 64.8936C28.4981 65.1896 28.3318 65.5911 28.3318 66.0097V69.1665C28.3318 69.5851 28.4981 69.9866 28.7941 70.2826C29.0901 70.5785 29.4916 70.7448 29.9102 70.7448H70.1588C70.5774 70.7448 70.9788 70.5785 71.2748 70.2826C71.5708 69.9866 71.7371 69.5851 71.7371 69.1665V66.0097C71.7371 65.8024 71.6963 65.5971 71.617 65.4056C71.5377 65.2141 71.4215 65.0401 71.2749 64.8936C71.1283 64.747 70.9543 64.6308 70.7628 64.5514C70.5713 64.4721 70.3661 64.4313 70.1588 64.4314Z" stroke="white" stroke-width="1.5" stroke-miterlimit="10" stroke-linecap="round" stroke-linejoin="round"/>
</svg>
