<svg width="58" height="58" viewBox="0 0 58 58" fill="none" xmlns="http://www.w3.org/2000/svg">
<g clip-path="url(#clip0_89_10911)">
<path fill-rule="evenodd" clip-rule="evenodd" d="M53.1063 26.6219L7.63982 0.371274C7.22398 0.12922 6.75175 0.000877803 6.27059 -0.000854492H6.26266C5.78125 0.00105753 5.30879 0.129465 4.89264 0.371501C4.47355 0.610508 4.1256 0.95673 3.88452 1.37463C3.64344 1.79253 3.51791 2.26706 3.5208 2.7495V55.2504C3.5189 55.7331 3.64458 56.2078 3.88513 56.6264C4.12567 57.0449 4.47254 57.3925 4.89061 57.6339C5.30869 57.8753 5.78312 58.0019 6.26587 58.001C6.74863 58.0001 7.22257 57.8716 7.63971 57.6286L53.1063 31.3778C53.5237 31.1368 53.8704 30.7902 54.1114 30.3728C54.3524 29.9554 54.4793 29.4819 54.4793 28.9999C54.4793 28.5179 54.3524 28.0444 54.1114 27.6269C53.8704 27.2095 53.5237 26.8629 53.1063 26.6219Z" fill="white"/>
</g>
<defs>
<clipPath id="clip0_89_10911">
<rect width="58" height="58" fill="white"/>
</clipPath>
</defs>
</svg>
