<svg width="110" height="111" viewBox="0 0 110 111" fill="none" xmlns="http://www.w3.org/2000/svg">
<g clip-path="url(#clip0_89_10773)">
<path d="M106.173 17.8711H101.718C99.6079 17.8711 97.8911 19.5876 97.8911 21.698V50.5932C97.8911 50.6921 97.8107 50.7727 97.7118 50.7727H97.1884C96.298 50.7727 95.5761 51.4943 95.5761 52.385C95.5761 53.2756 96.298 53.9973 97.1884 53.9973H97.7118C99.5887 53.9973 101.116 52.4701 101.116 50.5932V21.698C101.116 21.5383 101.179 21.3852 101.292 21.2723C101.405 21.1594 101.558 21.0958 101.718 21.0957H106.173C106.333 21.0958 106.486 21.1594 106.599 21.2723C106.712 21.3852 106.775 21.5383 106.776 21.698V58.5119C106.776 59.8322 105.701 60.9062 104.381 60.9062H88.2365L88.2464 53.9973H89.745C90.6354 53.9973 91.3573 53.2756 91.3573 52.385C91.3573 51.4943 90.6354 50.7727 89.745 50.7727H88.2509L88.2686 38.3865C89.3954 37.852 90.1784 36.7067 90.1784 35.3788V30.8171C90.1784 28.9808 88.6845 27.487 86.8482 27.487H23.1862C21.3499 27.487 19.8563 28.9808 19.8563 30.8171V35.3788C19.8563 36.579 20.4967 37.6298 21.4514 38.216V50.7727H12.2884C12.2409 50.7726 12.1953 50.7536 12.1617 50.72C12.1281 50.6863 12.1092 50.6407 12.1091 50.5932V40.5891C12.1091 39.6984 11.3873 38.9768 10.4968 38.9768C9.60643 38.9768 8.88455 39.6984 8.88455 40.5891V50.5932C8.88455 52.4701 10.4115 53.9973 12.2884 53.9973H21.4514V60.9062H5.61892C4.29878 60.9062 3.22457 59.832 3.22457 58.5119V21.698C3.22474 21.5383 3.28826 21.3852 3.40118 21.2723C3.51411 21.1594 3.66722 21.0958 3.82692 21.0957H8.2822C8.44191 21.0958 8.59502 21.1594 8.70794 21.2723C8.82087 21.3852 8.88438 21.5383 8.88455 21.698V33.0977C8.88455 33.9884 9.60643 34.71 10.4968 34.71C11.3873 34.71 12.1091 33.9884 12.1091 33.0977V21.698C12.1091 19.5879 10.3924 17.8711 8.2822 17.8711H3.82692C1.71676 17.8711 0 19.5876 0 21.698V90.388C0 91.7512 1.10904 92.8602 2.47217 92.8602H6.57383C7.93696 92.8602 9.046 91.7512 9.046 90.388V64.1308H21.5092V90.6568C21.5092 92.0199 22.6182 93.1289 23.9814 93.1289H28.083C29.4461 93.1289 30.5552 92.0199 30.5552 90.6568V63.7112C30.7076 63.6969 30.8606 63.6899 31.0137 63.6901C32.4166 63.6901 33.0289 64.2013 33.9554 64.975C35.0408 65.8813 36.3917 67.0093 38.9638 67.0093C41.5357 67.0093 42.8864 65.8813 43.9715 64.975C44.8979 64.2013 45.5099 63.6901 46.9124 63.6901C47.7479 63.6901 48.3026 63.8726 48.8106 64.1828C48.8465 67.4519 48.8254 74.9987 48.0102 80.4056H45.6872C41.6967 80.4056 38.1398 83.0844 37.0376 86.9199L36.1298 90.0793C36.0374 90.4039 36.0213 90.7453 36.0827 91.0771C36.1441 91.4089 36.2813 91.722 36.4837 91.9919C36.6873 92.261 36.9504 92.4794 37.2524 92.63C37.5544 92.7806 37.8871 92.8594 38.2245 92.8602H71.8106C72.4912 92.8602 73.1421 92.5356 73.5514 91.9919C73.7537 91.722 73.891 91.4089 73.9523 91.0771C74.0137 90.7453 73.9976 90.4039 73.9052 90.0793L72.9974 86.9199C71.8953 83.0844 68.3383 80.4056 64.3478 80.4056H62.0317C61.8157 78.9744 61.6383 77.3057 61.5068 75.4235C61.4444 74.5352 60.674 73.8621 59.7859 73.9277C59.5747 73.9424 59.3685 73.9987 59.179 74.0931C58.9895 74.1876 58.8205 74.3185 58.6816 74.4783C58.5427 74.6381 58.4366 74.8237 58.3695 75.0245C58.3023 75.2253 58.2753 75.4373 58.2901 75.6485C58.4138 77.4158 58.575 79.0025 58.7717 80.4056H51.2602C51.9038 75.816 52.0405 70.1687 52.0487 66.4471C52.7981 66.7803 53.7059 67.009 54.862 67.009C56.1841 67.009 57.182 66.71 57.9885 66.2973C57.9894 66.8622 57.9931 67.4738 58.0012 68.1247C58.0064 68.5488 58.1785 68.9538 58.4802 69.2519C58.7819 69.55 59.189 69.7172 59.6131 69.7173L59.6333 69.717C59.845 69.7145 60.0541 69.6702 60.2487 69.5868C60.4433 69.5034 60.6196 69.3825 60.7674 69.2309C60.9153 69.0794 61.0319 68.9002 61.1105 68.7036C61.1891 68.507 61.2282 68.2969 61.2256 68.0852C61.209 66.7276 61.209 65.3698 61.2256 64.0121C61.6545 63.8068 62.1424 63.6897 62.8108 63.6897C64.2133 63.6897 64.8253 64.2009 65.7516 64.9746C66.8368 65.8809 68.1876 67.0088 70.7594 67.0088C73.3313 67.0088 74.6821 65.8809 75.7673 64.9746C76.6938 64.2009 77.3059 63.6897 78.7084 63.6897C78.8653 63.6897 79.0108 63.697 79.1495 63.7094V90.388C79.1495 91.7512 80.2585 92.8602 81.6216 92.8602H85.7233C87.0864 92.8602 88.1955 91.7512 88.1955 90.388L88.2329 64.1306H100.955V90.388C100.955 91.7512 102.064 92.8602 103.427 92.8602H107.529C108.892 92.8602 110.001 91.7512 110.001 90.388V21.698C110 19.5876 108.283 17.8711 106.173 17.8711ZM5.82143 89.6356H3.22457V63.5936C3.97298 63.9479 4.79086 64.1314 5.61892 64.1306H5.82121L5.82143 89.6356ZM71.8912 30.7118L56.6738 45.45C56.2309 45.8827 55.6363 46.1249 55.0171 46.1249C54.3979 46.1249 53.8033 45.8827 53.3604 45.45L38.143 30.7118H71.8912ZM23.1862 35.4846C23.1582 35.4845 23.1314 35.4734 23.1117 35.4536C23.0919 35.4338 23.0808 35.407 23.0808 35.379V30.8173C23.0808 30.7591 23.1281 30.7118 23.1862 30.7118H33.5082L38.4362 35.4846H23.1862ZM27.3304 89.9041H24.7335V66.6257C25.2757 66.6298 25.8194 66.4989 26.319 66.2296C26.6941 66.0275 27.0264 65.8011 27.3302 65.5717L27.3304 89.9041ZM64.3474 83.6302C66.9081 83.6302 69.1907 85.3491 69.8977 87.8103L70.4223 89.6356H39.6124L40.1369 87.8103C40.8441 85.3491 43.1265 83.6302 45.6872 83.6302H64.3474ZM84.9698 89.6356H82.373V65.5591C82.681 65.7927 83.0185 66.0236 83.4003 66.2293C83.8821 66.4903 84.4217 66.6264 84.9696 66.6253L84.9698 89.6356ZM85.0438 63.3906C84.6265 63.1658 84.1432 62.8573 83.7152 62.4996C82.6301 61.5933 81.2792 60.4653 78.7075 60.4653C76.1358 60.4653 74.7849 61.5933 73.6997 62.4996C72.7732 63.2733 72.1612 63.7845 70.7585 63.7845C69.356 63.7845 68.744 63.2733 67.8177 62.4996C66.7325 61.5933 65.3816 60.4653 62.8099 60.4653C60.238 60.4653 58.8873 61.5933 57.8022 62.4996C56.8758 63.2733 56.2638 63.7845 54.8614 63.7845C53.4587 63.7845 52.8466 63.2733 51.9201 62.4996C50.8349 61.5933 49.4841 60.4653 46.9121 60.4653C44.3402 60.4653 42.9896 61.5933 41.9044 62.4996C40.9781 63.2733 40.366 63.7845 38.9636 63.7845C37.5607 63.7845 36.9484 63.2733 36.0219 62.4996C34.9365 61.5933 33.5856 60.4653 31.0135 60.4653C28.4414 60.4653 27.0905 61.5933 26.0051 62.4996C25.5771 62.8571 25.2073 63.1658 24.7896 63.3909C24.7727 63.4003 24.7565 63.4091 24.7202 63.387C24.6759 63.3605 24.6759 63.3309 24.6759 63.3113V38.7091H41.7655L51.1172 47.7663C52.2105 48.8253 53.6139 49.3547 55.0172 49.3547C56.4205 49.3547 57.8239 48.8253 58.9172 47.7663L68.2689 38.7091H85.044L85.0438 63.3906ZM86.9538 35.379C86.9538 35.4373 86.9065 35.4846 86.8482 35.4846H71.5982L76.5262 30.7118H86.8482C86.9065 30.7118 86.9538 30.7593 86.9538 30.8173V35.379ZM106.775 89.6356H104.179V64.1308H104.381C105.237 64.1308 106.048 63.9375 106.775 63.5938V89.6356H106.775Z" fill="white" stroke="#3D482E" stroke-width="1.5"/>
</g>
<defs>
<clipPath id="clip0_89_10773">
<rect width="110" height="110" fill="white" transform="translate(0 0.5)"/>
</clipPath>
</defs>
</svg>
