<svg width="71" height="72" viewBox="0 0 71 72" fill="none" xmlns="http://www.w3.org/2000/svg">
<g clip-path="url(#clip0_89_16921)">
<path d="M35.5091 0.551941H35.4914C15.9462 0.551941 0.052124 16.4504 0.052124 36.0001C0.052124 43.7543 2.55122 50.9414 6.80056 56.7771L2.38284 69.9461L16.0082 65.5904C21.6134 69.3036 28.2998 71.4482 35.5091 71.4482C55.0543 71.4482 70.9483 55.5453 70.9483 36.0001C70.9483 16.4549 55.0543 0.551941 35.5091 0.551941ZM56.1355 50.6091C55.2803 53.024 51.8861 55.0268 49.1788 55.6117C47.3266 56.0061 44.9073 56.3207 36.7631 52.9443C26.3458 48.6284 19.6372 38.0428 19.1143 37.3559C18.6136 36.6691 14.9049 31.7507 14.9049 26.6639C14.9049 21.5771 17.4882 19.1002 18.5295 18.0367C19.3846 17.1638 20.7981 16.765 22.154 16.765C22.5927 16.765 22.9871 16.7872 23.3415 16.8049C24.3828 16.8492 24.9057 16.9112 25.5925 18.5552C26.4477 20.6156 28.5303 25.7024 28.7784 26.2252C29.031 26.7481 29.2835 27.4571 28.929 28.1439C28.5967 28.8528 28.3043 29.1674 27.7814 29.77C27.2586 30.3727 26.7623 30.8335 26.2394 31.4804C25.7609 32.0432 25.2203 32.6458 25.8229 33.6871C26.4255 34.7062 28.5081 38.1048 31.5744 40.8343C35.5313 44.3569 38.7393 45.4824 39.8869 45.961C40.7421 46.3155 41.7613 46.2313 42.386 45.5666C43.1792 44.7114 44.1584 43.2935 45.1554 41.8977C45.8644 40.8963 46.7594 40.7723 47.6988 41.1267C48.6559 41.4591 53.7206 43.9626 54.7619 44.481C55.8031 45.0039 56.4899 45.252 56.7425 45.6907C56.9907 46.1294 56.9907 48.1898 56.1355 50.6091Z" fill="white"/>
</g>
<defs>
<clipPath id="clip0_89_16921">
<rect width="70.8962" height="70.8962" fill="white" transform="translate(0.0511475 0.55188)"/>
</clipPath>
</defs>
</svg>
